<?xml version="1.0" encoding="UTF-8"?>
<!DOCTYPE svg PUBLIC "-//W3C//DTD SVG 1.1//EN" "http://www.w3.org/Graphics/SVG/1.1/DTD/svg11.dtd">
<!-- Creator: CorelDRAW X7 -->
<svg xmlns="http://www.w3.org/2000/svg" xml:space="preserve" width="200px" height="200px" version="1.1" style="shape-rendering:geometricPrecision; text-rendering:geometricPrecision; image-rendering:optimizeQuality; fill-rule:evenodd; clip-rule:evenodd"
viewBox="0 0 200 200"
 xmlns:xlink="http://www.w3.org/1999/xlink">
 <defs>
  <style type="text/css">
   <![CDATA[
    .str0 {stroke:white;stroke-width:3.00002}
    .fil3 {fill:none}
    .fil0 {fill:#E84747}
    .fil1 {fill:#E42129}
    .fil2 {fill:white;fill-rule:nonzero}
   ]]>
  </style>
 </defs>
 <g id="Слой_x0020_1">
  <metadata id="CorelCorpID_0Corel-Layer"/>
  <circle class="fil0" cx="100" cy="100" r="100"/>
  <path class="fil1" d="M115 199l-59 -59c-9,-11 -15,-25 -15,-40 0,-33 26,-59 59,-59 16,0 31,6 41,17l58 57c-7,44 -40,77 -84,84z"/>
  <g id="_648616659584">
   <path class="fil2 str0" d="M78 115l-4 0 0 -23c-1,1 -2,2 -3,3 -1,1 -3,1 -4,2l0 -4c2,-1 4,-2 5,-3 2,-2 3,-3 4,-4l2 0 0 29zm28 -3l0 3 -20 0c0,-1 1,-2 1,-3 0,-1 1,-2 2,-3 1,-2 3,-3 5,-5 3,-2 5,-4 6,-6 1,-1 2,-3 2,-4 0,-2 -1,-3 -2,-4 -1,-1 -2,-1 -4,-1 -1,0 -3,0 -4,1 -1,1 -1,3 -1,5l-4 -1c0,-2 1,-5 3,-6 2,-1 4,-2 7,-2 2,0 5,1 6,2 2,2 3,4 3,6 0,1 -1,2 -1,3 -1,1 -1,3 -2,4 -2,1 -3,3 -6,5 -2,2 -3,3 -4,4 -1,0 -1,1 -2,2l15 0zm5 -18l5 0 6 17 6 -17 5 0 0 21 -4 0 0 -12 -6 12 -3 0 -6 -12 0 12 -3 0 0 -21z"/>
   <polygon class="fil2 str0" points="88,56 85,32 106,42 "/>
   <path class="fil3 str0" d="M113 43c5,1 9,3 14,5m9 7c4,3 7,6 10,10m5 8c3,4 4,9 6,14m1 8c0,2 0,3 0,5 0,32 -26,58 -58,58 -32,0 -58,-26 -58,-58 0,-28 19,-51 45,-57"/>
  </g>
 </g>
</svg>
