<?xml version="1.0" encoding="UTF-8"?>
<!DOCTYPE svg PUBLIC "-//W3C//DTD SVG 1.1//EN" "http://www.w3.org/Graphics/SVG/1.1/DTD/svg11.dtd">
<!-- Creator: CorelDRAW X7 -->
<svg xmlns="http://www.w3.org/2000/svg" xml:space="preserve" width="200px" height="200px" version="1.1" style="shape-rendering:geometricPrecision; text-rendering:geometricPrecision; image-rendering:optimizeQuality; fill-rule:evenodd; clip-rule:evenodd"
viewBox="0 0 200 200"
 xmlns:xlink="http://www.w3.org/1999/xlink">
 <defs>
  <style type="text/css">
   <![CDATA[
    .str1 {stroke:white;stroke-width:3.00002}
    .str0 {stroke:#E73D3E;stroke-width:0.900007}
    .fil2 {fill:none}
    .fil0 {fill:#E84747}
    .fil1 {fill:#E42129}
   ]]>
  </style>
 </defs>
 <g id="Слой_x0020_1">
  <metadata id="CorelCorpID_0Corel-Layer"/>
  <circle class="fil0" cx="100" cy="100" r="100"/>
  <path class="fil1 str0" d="M200 105c-2,47 -37,85 -82,93l-57 -57c0,0 0,0 -1,0 -3,-4 -4,-9 -1,-13 1,-2 7,-7 9,-9 2,-3 6,-6 8,-9l2 -1 -23 -24c-3,-2 -5,-5 -6,-9l0 -1 0 -1 0 -1 0 -4c0,-1 0,-6 2,-6 2,-1 4,2 5,4l5 4c1,1 1,1 4,1 1,0 3,0 4,0 0,0 0,0 0,0 0,0 0,-3 0,-4 0,-5 1,-3 -3,-7 -1,-1 -3,-3 -4,-4 -1,-1 -4,-3 -1,-4 3,-2 9,-2 13,-1 3,1 6,3 8,5l0 0 30 30c4,-4 9,-9 13,-13l7 -7c0,-1 0,-1 -1,-2 -1,-6 4,-9 8,-12 1,-1 2,-1 3,-2 3,-2 3,-1 7,2l2 3c0,0 0,0 0,0l49 49z"/>
  <path class="fil2 str1" d="M98 114l10 9c3,3 0,1 0,9 1,9 7,16 15,18 9,2 18,-2 22,-10 8,-15 -5,-32 -21,-29 -3,1 -2,1 -4,0l-5 -6c-1,0 -1,-1 -1,-2 -1,0 -1,0 -2,-1 0,-1 -5,-5 -5,-5l10 -11c1,-1 2,-2 4,-3 2,-3 4,-5 6,-7l7 -7c1,0 3,2 7,0 2,0 3,-2 4,-3l3 -4c1,-1 1,-2 2,-3 0,0 1,-1 1,-2l0 -1c0,0 0,0 0,0l-2 -3c-4,-3 -4,-4 -7,-2 -1,1 -2,1 -3,2 -4,3 -9,6 -8,12 1,1 1,1 1,2l-7 7c-4,4 -9,9 -14,14 0,0 -6,6 -7,6 0,-1 -7,-7 -7,-7 -1,-1 -3,-3 -4,-4 -1,-1 -3,-2 -4,-4 0,0 -1,-1 -2,-1 -1,-2 4,-10 -4,-20 -2,-2 -5,-5 -9,-6 -4,-1 -10,-1 -13,1 -3,1 0,3 1,4 1,1 3,3 4,4 4,4 3,2 3,7 0,1 0,4 0,4 0,0 0,0 0,0 -1,0 -3,0 -4,0 -3,0 -3,0 -4,-1 -2,-1 -3,-3 -5,-4 -1,-2 -3,-5 -5,-4 -2,0 -2,5 -2,6l0 4 0 1c0,0 0,0 0,1 0,0 0,0 0,1 2,9 11,15 21,15 2,0 3,-1 5,-1l4 4c1,1 7,7 8,8"/>
  <path class="fil2 str1" d="M99 112c-1,2 0,3 0,4 0,1 -3,4 -4,5 -3,3 -20,20 -22,21 -4,3 -10,2 -13,-1 -3,-4 -4,-9 -1,-13 1,-2 7,-7 9,-9 2,-3 6,-6 8,-9l9 -8c5,2 8,-1 9,-5 1,-2 0,-2 0,-4l2 -2c0,0 0,0 0,0l14 14c0,1 -2,2 -2,3 -5,-2 -9,0 -9,4z"/>
  <path class="fil2 str1" d="M129 121l-8 2c-1,0 -1,2 -1,3 -1,2 -1,3 -1,4 -1,1 -1,3 -1,4l5 5c2,2 2,2 8,0 5,-1 4,0 5,-4 1,-1 1,-3 1,-4 1,-4 1,-3 -2,-6 -1,-1 -2,-2 -2,-3 -1,-1 -2,-2 -4,-1z"/>
  <path class="fil2 str1" d="M89 110c-1,1 -5,5 -6,6l-16 16c-1,2 0,4 2,3 0,0 5,-5 6,-6l13 -13c1,-1 4,-4 4,-5 -1,-1 -2,-1 -3,-1z"/>
  <path class="fil2 str1" d="M93 114c-1,1 -19,20 -22,22 -2,2 0,3 2,3l22 -22c2,-2 0,-4 -2,-3z"/>
  <path class="fil2 str1" d="M85 106c-1,0 -2,2 -3,3 -6,6 -13,12 -19,18 -2,3 0,4 1,3l13 -12c2,-2 4,-4 6,-6l3 -3c2,-2 1,-4 -1,-3z"/>
 </g>
</svg>
