<?xml version="1.0" encoding="UTF-8"?>
<!DOCTYPE svg PUBLIC "-//W3C//DTD SVG 1.0//EN" "http://www.w3.org/TR/2001/REC-SVG-20010904/DTD/svg10.dtd">
<!-- Creator: CorelDRAW X7 -->
<svg xmlns="http://www.w3.org/2000/svg" xml:space="preserve" width="220px" height="220px" version="1.0" style="shape-rendering:geometricPrecision; text-rendering:geometricPrecision; image-rendering:optimizeQuality; fill-rule:evenodd; clip-rule:evenodd"
viewBox="0 0 220 220"
 xmlns:xlink="http://www.w3.org/1999/xlink">
 <defs>
  <style type="text/css">
   <![CDATA[
    .fil0 {fill:#E84747}
    .fil1 {fill:white}
   ]]>
  </style>
 </defs>
 <g id="Слой_x0020_1">
  <metadata id="CorelCorpID_0Corel-Layer"/>
  <circle class="fil0" cx="110" cy="110" r="110"/>
  <path class="fil1" d="M158 115l0 -2 13 0 0 7 7 0 0 -7 13 0 0 33 -33 0 0 -31zm0 -41l13 0 0 8 7 0 0 -8 13 0 0 34 -33 0 0 -34zm-4 76l41 0 0 -79 -41 0 0 79zm25 -7l4 0c0,-4 0,-1 -1,-3 -1,-2 1,-2 2,-5 0,-1 0,-3 0,-4l-6 0c0,4 0,4 2,7 0,0 1,0 0,2 -1,3 -1,-1 -1,3zm-9 -8c0,0 1,0 1,2 1,1 0,1 1,2 2,0 1,0 1,-2l1 -2c0,-1 0,-1 0,-2l-2 -1 -2 3zm-6 8l11 0 -1 -3 -10 0 0 3zm0 -8c1,1 1,1 1,2 0,1 0,1 0,2l2 0c1,-5 1,-2 2,-4l-2 -4c-2,2 -1,1 -3,4zm0 -31l11 0 -1 -2 -10 0 0 2zm0 -7c1,1 0,0 1,1 0,0 0,0 0,1 0,1 0,1 0,2l2 0c0,-1 0,-2 1,-3 0,-1 -1,0 0,-1 1,-1 0,1 1,0 -1,-2 -1,-2 -3,-4 -1,1 -1,1 -2,4zm6 0c1,1 -1,-1 0,0 2,2 1,2 2,4 2,0 1,0 1,-2 0,0 0,-1 0,-1l1 0c1,-2 0,1 0,-1 0,-2 0,-3 -2,-4l-2 4zm9 7l4 0c0,-4 0,0 -1,-2 -1,-3 1,-2 2,-5 0,-1 0,-3 0,-4l-6 0c0,4 0,4 2,6 0,1 1,1 0,3 -1,3 -1,-2 -1,2zm-122 54l55 0c1,0 2,2 4,4l5 3 -73 0c0,0 0,0 0,0l1 -1c0,0 1,0 1,0l5 -4c1,-2 0,-2 2,-2zm76 -6c-3,9 -16,5 -13,-4 3,-9 16,-4 13,4zm-84 0c-3,9 -16,5 -13,-4 2,-9 15,-5 13,4zm54 -30c-2,2 -3,1 -6,1l0 -2c2,0 2,0 4,-1l0 -3 2 0c1,2 0,4 0,5zm-7 -4l-3 -1c0,-4 1,-7 6,-6l0 3 -3 0 0 4zm-9 -9c2,0 3,1 4,3l1 0 0 16 -18 0c-1,0 -1,0 -1,-1 -1,-2 -2,-6 -3,-7 -15,0 -12,2 -13,-11 -1,-4 -1,-8 -2,-11l-10 0 0 -43c9,-1 19,0 28,0 11,0 14,4 17,12 3,6 6,13 9,20 2,4 8,18 9,20 -3,0 -6,0 -9,0 -6,0 -4,0 -11,-5 -1,-1 -4,-3 -5,-4 1,-1 3,-3 4,-4 -1,-1 -2,-3 -4,-3l-11 13c0,1 2,3 3,3 2,-1 3,-3 4,-5l6 5c1,1 2,1 2,2zm-54 -54l5 0 0 45 -16 0 0 58c9,0 5,-1 10,4 2,2 2,1 3,2l2 1 -15 0 0 6 176 0 0 -6 -66 0c1,0 0,0 1,-1 3,-1 5,-2 7,-6l58 0 0 -6 -48 0 0 -30 -8 0 0 -51 -12 -1 0 41c-3,0 -14,-2 -15,-4 -2,-3 -5,-11 -6,-14 -4,-10 -8,-19 -12,-28 -5,-11 -10,-16 -24,-16 -13,0 -26,0 -39,0l-1 6z"/>
 </g>
</svg>
